<?xml version="1.0" encoding="utf-8"?>
<!-- Generator: Adobe Illustrator 16.0.0, SVG Export Plug-In . SVG Version: 6.00 Build 0)  -->
<!DOCTYPE svg PUBLIC "-//W3C//DTD SVG 1.1//EN" "http://www.w3.org/Graphics/SVG/1.1/DTD/svg11.dtd">
<svg version="1.1" id="Layer_1" xmlns="http://www.w3.org/2000/svg" xmlns:xlink="http://www.w3.org/1999/xlink" x="0px" y="0px"
	 width="74.426px" height="22.859px" viewBox="0 0 74.426 22.859" enable-background="new 0 0 74.426 22.859" xml:space="preserve">
<g>
	<path fill="#FFFFFF" d="M0,1.449c0-0.708,0.58-1.288,1.256-1.288h7.18c5.087,0,8.436,2.704,8.436,7.147v0.063
		c0,4.861-4.057,7.373-8.854,7.373H2.544v6.825c0,0.708-0.58,1.288-1.288,1.288C0.58,22.859,0,22.279,0,21.571V1.449z M8.114,12.428
		c3.734,0,6.182-1.996,6.182-4.958V7.405c0-3.22-2.415-4.895-6.054-4.895H2.544v9.918H8.114z"/>
	<path fill="#FFFFFF" d="M21.729,1.288C21.729,0.58,22.308,0,22.983,0c0.709,0,1.288,0.58,1.288,1.288v20.283
		c0,0.708-0.579,1.288-1.288,1.288c-0.676,0-1.255-0.58-1.255-1.288L21.729,1.288L21.729,1.288z"/>
	<path fill="#FFFFFF" d="M30.87,1.32c0-0.676,0.579-1.256,1.256-1.256h0.354c0.58,0,0.934,0.29,1.288,0.74l13.684,17.449V1.256
		C47.451,0.58,47.998,0,48.707,0c0.676,0,1.223,0.58,1.223,1.256v20.349c0,0.676-0.481,1.19-1.158,1.19h-0.129
		c-0.547,0-0.934-0.321-1.319-0.771L33.349,4.153v17.45c0,0.676-0.547,1.256-1.255,1.256c-0.677,0-1.224-0.58-1.224-1.256V1.32z"/>
	<path fill="#FFFFFF" d="M56.3,1.288C56.3,0.58,56.879,0,57.557,0c0.707,0,1.286,0.58,1.286,1.288v12.331L71.689,0.451
		C71.979,0.193,72.27,0,72.688,0c0.677,0,1.225,0.612,1.225,1.256c0,0.354-0.161,0.645-0.419,0.901l-7.984,7.92l8.564,10.562
		c0.225,0.29,0.354,0.547,0.354,0.934c0,0.676-0.579,1.288-1.286,1.288c-0.483,0-0.807-0.258-1.031-0.58l-8.402-10.463l-4.861,4.861
		v4.894c0,0.708-0.58,1.288-1.287,1.288c-0.678,0-1.257-0.58-1.257-1.288V1.288H56.3z"/>
</g>
</svg>
