<?xml version="1.0" encoding="utf-8"?>
<!-- Generator: Adobe Illustrator 16.0.0, SVG Export Plug-In . SVG Version: 6.00 Build 0)  -->
<!DOCTYPE svg PUBLIC "-//W3C//DTD SVG 1.1//EN" "http://www.w3.org/Graphics/SVG/1.1/DTD/svg11.dtd">
<svg version="1.1" id="Layer_1" xmlns="http://www.w3.org/2000/svg" xmlns:xlink="http://www.w3.org/1999/xlink" x="0px" y="0px"
	 width="19.697px" height="19.695px" viewBox="0 0 19.697 19.695" enable-background="new 0 0 19.697 19.695" xml:space="preserve">
<path fill="#D22856" d="M9.848,0C6.34,0,2.823,0.628,1.546,1.878c-1.058,1.04-1.412,2.874-1.529,4.035c0,0-0.017,0.114-0.017,0.165
	c0,0.454,0.369,0.819,0.819,0.819c0.054,0,2.028-0.161,3.218-0.259c0.029-0.004,0.059-0.008,0.086-0.017
	C4.566,6.61,4.924,6.25,4.924,5.803l0.003-1.617c0-0.5,0.407-0.901,0.907-0.901h8.027c0.499,0,0.907,0.401,0.907,0.901l0.003,1.617
	c0,0.447,0.355,0.808,0.802,0.82c0.027,0.009,0.056,0.013,0.085,0.017c1.19,0.098,3.164,0.259,3.217,0.259
	c0.451,0,0.822-0.365,0.822-0.819c0-0.051-0.018-0.165-0.018-0.165c-0.118-1.161-0.473-2.995-1.53-4.035
	C16.873,0.628,13.356,0,9.848,0z M9.848,10.67c-0.908,0-1.644,0.732-1.644,1.64s0.734,1.642,1.644,1.642
	c0.905,0,1.641-0.733,1.641-1.642C11.488,11.404,10.754,10.67,9.848,10.67z M8.616,6.975V5.951c0-0.567-0.46-1.026-1.025-1.026
	S6.567,5.384,6.567,5.951v1.023L1.03,12.888c-0.382,0.376-0.619,0.895-0.619,1.47v1.646c0,0.907,0.734,1.643,1.641,1.643h0.411
	v1.023c0,0.567,0.46,1.025,1.026,1.025c0.565,0,1.024-0.458,1.024-1.025v-1.023h10.669v1.023c0,0.567,0.46,1.025,1.024,1.025
	c0.567,0,1.026-0.458,1.026-1.025v-1.023h0.411c0.904,0,1.64-0.734,1.64-1.643v-1.646c0-0.575-0.236-1.094-0.618-1.47L13.13,6.975
	V5.951c0-0.567-0.459-1.026-1.023-1.026c-0.567,0-1.027,0.459-1.027,1.026v1.023H8.616z M9.848,9.028
	c1.813,0,3.281,1.469,3.281,3.282c0,1.814-1.468,3.282-3.281,3.282s-3.281-1.468-3.281-3.282C6.567,10.496,8.034,9.028,9.848,9.028z
	"/>
</svg>
