<?xml version="1.0" encoding="utf-8"?>
<!-- Generator: Adobe Illustrator 16.0.0, SVG Export Plug-In . SVG Version: 6.00 Build 0)  -->
<!DOCTYPE svg PUBLIC "-//W3C//DTD SVG 1.1//EN" "http://www.w3.org/Graphics/SVG/1.1/DTD/svg11.dtd">
<svg version="1.1" id="Layer_1" xmlns="http://www.w3.org/2000/svg" xmlns:xlink="http://www.w3.org/1999/xlink" x="0px" y="0px"
	 width="298px" height="345.097px" viewBox="0 0 298 345.097" enable-background="new 0 0 298 345.097" xml:space="preserve">
<path fill="#DEDEDE" d="M264.568,102.055l5.354-5.355c7.718-7.717,9.124-18.938,3.126-24.935c-5.997-5.997-17.217-4.59-24.934,3.127
	l-5.387,5.385C221.768,63.292,196.109,51.875,168,48.297v-9.583h7.658c10.914,0,19.843-8.711,19.843-19.357S186.573,0,175.659,0
	h-53.317C111.429,0,102.5,8.711,102.5,19.357s8.929,19.357,19.842,19.357H130v9.583C56.681,57.629,0,120.244,0,196.097
	c0,82.291,66.709,149,149,149c82.29,0,149-66.709,149-149C298,160.434,285.465,127.703,264.568,102.055z M149,306.264
	c-60.844,0-110.167-49.323-110.167-110.167C38.833,135.253,88.156,85.93,149,85.93c60.843,0,110.167,49.323,110.167,110.167
	C259.167,256.941,209.843,306.264,149,306.264z"/>
<path fill="#D22856" d="M149,68.049c-69.864,0-126.5,56.636-126.5,126.5c0,69.865,56.636,126.5,126.5,126.5
	s126.5-56.635,126.5-126.5C275.5,124.685,218.864,68.049,149,68.049z M149,305.265c-60.844,0-110.167-49.324-110.167-110.168
	S88.156,84.931,149,84.931c60.843,0,110.167,49.323,110.167,110.167S209.843,305.265,149,305.265z"/>
<g>
	<path fill="#D22856" d="M144.187,234.382H84.304v-12.598l21.504-21.738c6.366-6.523,10.526-11.045,12.48-13.564
		c1.953-2.52,3.359-4.854,4.219-7.002c0.858-2.148,1.289-4.375,1.289-6.68c0-3.437-0.947-5.996-2.842-7.676
		c-1.896-1.679-4.424-2.52-7.588-2.52c-3.32,0-6.543,0.762-9.668,2.285c-3.126,1.523-6.387,3.691-9.785,6.504l-9.844-11.66
		c4.219-3.593,7.714-6.132,10.488-7.617c2.773-1.484,5.801-2.626,9.082-3.428c3.281-0.8,6.952-1.201,11.016-1.201
		c5.352,0,10.078,0.977,14.18,2.93c4.102,1.954,7.285,4.688,9.551,8.203c2.265,3.516,3.398,7.54,3.398,12.07
		c0,3.945-0.694,7.646-2.08,11.104c-1.387,3.457-3.536,7.002-6.445,10.635c-2.91,3.633-8.037,8.809-15.381,15.527l-11.016,10.371
		v0.82h37.324V234.382z"/>
	<path fill="#D22856" d="M214.617,216.628h-10.313v17.754h-17.695v-17.754h-36.563v-12.598l37.559-55.313h16.699v53.848h10.313
		V216.628z M186.609,202.566v-14.531c0-2.422,0.096-5.938,0.293-10.547c0.195-4.609,0.352-7.285,0.469-8.027h-0.469
		c-1.445,3.204-3.186,6.328-5.215,9.375l-15.703,23.73H186.609z"/>
</g>
</svg>
