<?xml version="1.0" encoding="utf-8"?>
<!-- Generator: Adobe Illustrator 16.0.0, SVG Export Plug-In . SVG Version: 6.00 Build 0)  -->
<!DOCTYPE svg PUBLIC "-//W3C//DTD SVG 1.1//EN" "http://www.w3.org/Graphics/SVG/1.1/DTD/svg11.dtd">
<svg version="1.1" id="Layer_1" xmlns="http://www.w3.org/2000/svg" xmlns:xlink="http://www.w3.org/1999/xlink" x="0px" y="0px"
	 width="46.21px" height="56.753px" viewBox="0 0 46.21 56.753" enable-background="new 0 0 46.21 56.753" xml:space="preserve">
<path fill="#FFFFFF" d="M38.593,30.15c0.08,8.59,7.535,11.447,7.617,11.482c-0.063,0.203-1.19,4.074-3.928,8.072
	c-2.365,3.457-4.82,6.901-8.688,6.974c-3.799,0.069-5.021-2.253-9.365-2.253c-4.344,0-5.702,2.182-9.298,2.322
	c-3.733,0.143-6.576-3.738-8.961-7.184c-4.875-7.046-8.598-19.91-3.597-28.593c2.484-4.313,6.925-7.043,11.743-7.114
	c3.666-0.069,7.126,2.466,9.366,2.466c2.241,0,6.444-3.049,10.865-2.601c1.851,0.077,7.044,0.747,10.38,5.629
	C44.458,19.519,38.531,22.971,38.593,30.15 M31.453,9.062c1.982-2.4,3.316-5.739,2.952-9.062c-2.856,0.115-6.312,1.904-8.36,4.302
	c-1.836,2.123-3.444,5.521-3.01,8.778C26.218,13.326,29.47,11.461,31.453,9.062"/>
</svg>
