<?xml version="1.0" encoding="utf-8"?>
<!-- Generator: Adobe Illustrator 16.0.0, SVG Export Plug-In . SVG Version: 6.00 Build 0)  -->
<!DOCTYPE svg PUBLIC "-//W3C//DTD SVG 1.1//EN" "http://www.w3.org/Graphics/SVG/1.1/DTD/svg11.dtd">
<svg version="1.1" id="Layer_1" xmlns="http://www.w3.org/2000/svg" xmlns:xlink="http://www.w3.org/1999/xlink" x="0px" y="0px"
	 width="8.672px" height="18.943px" viewBox="0 0 8.672 18.943" enable-background="new 0 0 8.672 18.943" xml:space="preserve">
<path fill="#D22856" d="M6.275,3.357c0.8,0,1.599,0,2.397,0c0-1.119,0-2.237,0-3.356c-0.959,0-1.92,0-2.877,0
	C2.656,0.181,1.54,2.387,1.948,6.115H0v3.517h1.958c0,3.104,0,6.208,0,9.312c1.279,0,2.558,0,3.837,0c0-3.104,0-6.208,0-9.312h2.856
	V6.115H5.786C5.765,5.07,5.75,3.709,6.275,3.357z"/>
</svg>
