<?xml version="1.0" encoding="utf-8"?>
<!-- Generator: Adobe Illustrator 16.0.0, SVG Export Plug-In . SVG Version: 6.00 Build 0)  -->
<!DOCTYPE svg PUBLIC "-//W3C//DTD SVG 1.1//EN" "http://www.w3.org/Graphics/SVG/1.1/DTD/svg11.dtd">
<svg version="1.1" id="Layer_1" xmlns="http://www.w3.org/2000/svg" xmlns:xlink="http://www.w3.org/1999/xlink" x="0px" y="0px"
	 width="153.384px" height="194.241px" viewBox="0 0 153.384 194.241" enable-background="new 0 0 153.384 194.241"
	 xml:space="preserve">
<path fill="#D22856" d="M77.497,0.084L76.69,0L0,8.04v140.568l76.692,45.633l76.692-45.633V8.04L77.497,0.084z M143.352,142.904
	l-66.66,39.663l-66.66-39.663V85.289l66.374,39.506l0.111,7.159l-45.534-27.1l-0.067,6.951l45.715,27.475l0.113,7.35l-45.7-27.186
	l-0.066,6.95l45.714,27.475l46.152-27.615v-6.982l-0.058,0.034v-2.386v-2.864V96.6l20.565-12.281V142.904z M143.298,76.845
	l-18.236,10.744l-8.419,4.96L76.494,68.665l-0.066,6.951l34.316,20.407l-0.304,0.18l-0.739,0.435l-4.876,2.873L76.494,82.656
	l-0.066,6.951l22.362,13.298l-5.276,3.529l-0.128,0.077L76.494,96.56l-0.066,6.95l11.084,6.527l-11.291,6.779L10.177,77.558
	l66.139-39.755v0.007L143.298,76.845z M143.352,69.853l-67.02-39.508v-0.01l-0.008,0.005l-0.008-0.005v0.01L10.032,69.807V17.076
	l66.661-6.989l66.659,6.989V69.853z"/>
</svg>
